<mxfile host="app.diagrams.net" agent="Mozilla/5.0 (Macintosh; Intel Mac OS X 10_15_7) AppleWebKit/537.36 (KHTML, like Gecko) Chrome/136.0.0.0 Safari/537.36" version="27.0.6">
  <diagram name="Page-1" id="BV2LxLzXdG6Jq4G_BEua">
    <mxGraphModel dx="1280" dy="891" grid="1" gridSize="10" guides="1" tooltips="1" connect="1" arrows="1" fold="1" page="1" pageScale="1" pageWidth="850" pageHeight="1100" math="0" shadow="0">
      <root>
        <mxCell id="0" />
        <mxCell id="1" parent="0" />
        <mxCell id="5RuPDJltokpeijdGnsXA-1" value="Actor" style="shape=umlActor;verticalLabelPosition=bottom;verticalAlign=top;html=1;outlineConnect=0;" vertex="1" parent="1">
          <mxGeometry x="265" y="130" width="30" height="60" as="geometry" />
        </mxCell>
        <mxCell id="5RuPDJltokpeijdGnsXA-2" value="App" style="shape=process;whiteSpace=wrap;html=1;backgroundOutline=1;" vertex="1" parent="1">
          <mxGeometry x="240" y="250" width="80" height="40" as="geometry" />
        </mxCell>
        <mxCell id="5RuPDJltokpeijdGnsXA-3" value="" style="group" connectable="0" vertex="1" parent="1">
          <mxGeometry x="385" y="130" width="50" height="50" as="geometry" />
        </mxCell>
        <mxCell id="5RuPDJltokpeijdGnsXA-4" value="" style="shape=card;whiteSpace=wrap;html=1;size=10;" vertex="1" parent="5RuPDJltokpeijdGnsXA-3">
          <mxGeometry width="34.61538461538462" height="35.714285714285715" as="geometry" />
        </mxCell>
        <mxCell id="5RuPDJltokpeijdGnsXA-5" value="" style="shape=card;whiteSpace=wrap;html=1;size=10;" vertex="1" parent="5RuPDJltokpeijdGnsXA-3">
          <mxGeometry x="7.6923076923076925" y="7.142857142857143" width="34.61538461538462" height="35.714285714285715" as="geometry" />
        </mxCell>
        <mxCell id="5RuPDJltokpeijdGnsXA-6" value="" style="shape=card;whiteSpace=wrap;html=1;size=10;" vertex="1" parent="5RuPDJltokpeijdGnsXA-3">
          <mxGeometry x="15.384615384615385" y="14.285714285714286" width="34.61538461538462" height="35.714285714285715" as="geometry" />
        </mxCell>
        <mxCell id="5RuPDJltokpeijdGnsXA-7" value="Hashstore" style="shape=cylinder3;whiteSpace=wrap;html=1;boundedLbl=1;backgroundOutline=1;size=15;" vertex="1" parent="1">
          <mxGeometry x="520" y="185" width="90" height="80" as="geometry" />
        </mxCell>
        <mxCell id="5RuPDJltokpeijdGnsXA-8" value="" style="ellipse;whiteSpace=wrap;html=1;aspect=fixed;" vertex="1" parent="1">
          <mxGeometry x="395" y="220" width="10" height="10" as="geometry" />
        </mxCell>
        <mxCell id="5RuPDJltokpeijdGnsXA-9" value="" style="endArrow=classic;html=1;rounded=0;entryX=0;entryY=0.5;entryDx=0;entryDy=0;" edge="1" parent="1" source="5RuPDJltokpeijdGnsXA-1" target="5RuPDJltokpeijdGnsXA-8">
          <mxGeometry width="50" height="50" relative="1" as="geometry">
            <mxPoint x="775" y="460" as="sourcePoint" />
            <mxPoint x="825" y="410" as="targetPoint" />
          </mxGeometry>
        </mxCell>
        <mxCell id="5RuPDJltokpeijdGnsXA-10" value="" style="endArrow=classic;html=1;rounded=0;entryX=0;entryY=1;entryDx=0;entryDy=0;exitX=1;exitY=0.5;exitDx=0;exitDy=0;" edge="1" parent="1" source="5RuPDJltokpeijdGnsXA-2" target="5RuPDJltokpeijdGnsXA-8">
          <mxGeometry width="50" height="50" relative="1" as="geometry">
            <mxPoint x="305" y="178" as="sourcePoint" />
            <mxPoint x="405" y="235" as="targetPoint" />
          </mxGeometry>
        </mxCell>
        <mxCell id="5RuPDJltokpeijdGnsXA-11" value="" style="endArrow=classic;html=1;rounded=0;entryX=0;entryY=0.5;entryDx=0;entryDy=0;exitX=1;exitY=0.5;exitDx=0;exitDy=0;entryPerimeter=0;" edge="1" parent="1" source="5RuPDJltokpeijdGnsXA-8" target="5RuPDJltokpeijdGnsXA-7">
          <mxGeometry width="50" height="50" relative="1" as="geometry">
            <mxPoint x="330" y="280" as="sourcePoint" />
            <mxPoint x="406" y="239" as="targetPoint" />
          </mxGeometry>
        </mxCell>
        <mxCell id="5RuPDJltokpeijdGnsXA-12" value="Upload" style="text;html=1;align=center;verticalAlign=middle;resizable=0;points=[];autosize=1;strokeColor=none;fillColor=none;" vertex="1" parent="1">
          <mxGeometry x="395" y="240" width="60" height="30" as="geometry" />
        </mxCell>
        <mxCell id="5RuPDJltokpeijdGnsXA-13" value="Package Format" style="text;html=1;align=center;verticalAlign=middle;resizable=0;points=[];autosize=1;strokeColor=none;fillColor=none;" vertex="1" parent="1">
          <mxGeometry x="365" y="180" width="110" height="30" as="geometry" />
        </mxCell>
      </root>
    </mxGraphModel>
  </diagram>
</mxfile>
